  <svg
    t="1722264554089"
    class="icon"
    viewBox="0 0 1024 1024"
    version="1.1"
    xmlns="http://www.w3.org/2000/svg"
    p-id="31529"
  >
    <path
      d="M511.98976 1023.999078a304.987886 304.987886 0 0 1-179.199839-57.651148 308.408042 308.408042 0 0 1-66.26298-64.808901A305.837805 305.837805 0 0 1 222.290181 819.199263H153.590083a51.271634 51.271634 0 0 1-51.199954-51.199954 51.271634 51.271634 0 0 1 51.199954-51.199954h51.199953V614.399447H153.590083a51.271634 51.271634 0 0 1-51.199954-51.199954 51.271634 51.271634 0 0 1 51.199954-51.199954h51.199953V409.599631H153.590083a51.271634 51.271634 0 0 1-51.199954-51.199954 51.271634 51.271634 0 0 1 51.199954-51.199953h68.679618a305.858285 305.858285 0 0 1 55.47003-96.358314 307.506923 307.506923 0 0 1 85.483443-70.082497A203.919176 203.919176 0 0 1 307.189944 0h102.399908a101.693348 101.693348 0 0 0 30.023653 72.376255A101.652389 101.652389 0 0 0 511.98976 102.399908 102.522788 102.522788 0 0 0 614.389668 0h102.399908a203.929416 203.929416 0 0 1-56.03323 140.758913 307.486443 307.486443 0 0 1 85.473203 70.082497A306.022125 306.022125 0 0 1 801.781499 307.199724H870.389437a51.251154 51.251154 0 0 1 51.199954 51.199953 51.261394 51.261394 0 0 1-51.199954 51.199954h-51.199953v102.399908h51.199953a51.251154 51.251154 0 0 1 51.199954 51.199954 51.261394 51.261394 0 0 1-51.199954 51.199954h-51.199953v102.399908h51.199953a51.261394 51.261394 0 0 1 51.199954 51.199954 51.251154 51.251154 0 0 1-51.199954 51.199954h-68.679618a306.175724 306.175724 0 0 1-44.25724 82.339766 308.223723 308.223723 0 0 1-66.27322 64.808901A305.018605 305.018605 0 0 1 511.98976 1023.999078z m0-783.359295a188.200791 188.200791 0 0 0-73.727934 14.888947 188.74351 188.74351 0 0 0-60.221385 40.601563 188.79471 188.79471 0 0 0-40.591324 60.211146A188.200791 188.200791 0 0 0 322.549931 430.079613v276.479751a188.292951 188.292951 0 0 0 14.878706 73.727934 188.80495 188.80495 0 0 0 40.591324 60.221386 188.85615 188.85615 0 0 0 60.221385 40.601563A188.190551 188.190551 0 0 0 511.98976 895.999194a188.251991 188.251991 0 0 0 73.727934-14.878707 188.86639 188.86639 0 0 0 60.221385-40.601563 188.83567 188.83567 0 0 0 40.591324-60.221386A188.303191 188.303191 0 0 0 701.42959 706.559364V430.079613a188.211031 188.211031 0 0 0-14.888947-73.727934 188.65135 188.65135 0 0 0-40.591324-60.211146 188.74351 188.74351 0 0 0-60.221385-40.601563A188.241751 188.241751 0 0 0 511.98976 240.639783z m51.199954 479.569489H460.789806a51.261394 51.261394 0 0 1-51.199954-51.199954 51.251154 51.251154 0 0 1 51.199954-51.199954h102.399908a51.251154 51.251154 0 0 1 51.199954 51.199954 51.261394 51.261394 0 0 1-51.199954 51.210194z m0-223.006519H460.789806a51.251154 51.251154 0 0 1-51.199954-51.199954 51.261394 51.261394 0 0 1 51.199954-51.199954h102.399908a51.261394 51.261394 0 0 1 51.199954 51.199954 51.251154 51.251154 0 0 1-51.199954 51.210194z"
      p-id="31530"
      fill="currentColor"
    ></path>
  </svg>