<svg t="1726717294126" class="icon" viewBox="0 0 1000 1060" version="1.1" xmlns="http://www.w3.org/2000/svg" p-id="8282"
>
    <path
        d="M791.893333 105.813333h-13.653333c-3.413333 3.413333-6.826667 6.826667-6.826667 10.24-10.24 34.133333-27.306667 75.093333-47.786666 119.466667 37.546667 17.066667 61.44 34.133333 61.44 54.613333 0 34.133333-40.96 51.2-273.066667 51.2s-273.066667-17.066667-273.066667-51.2c0-20.48 23.893333-37.546667 61.44-51.2-17.066667-40.96-30.72-75.093333-40.96-105.813333 0-3.413333-3.413333-6.826667-6.826666-10.24s-10.24-3.413333-13.653334 0C92.16 170.666667 0 245.76 0 317.44 0 399.36 40.96 409.6 78.506667 409.6h6.826666c10.24 0 27.306667-3.413333 54.613334-6.826667 10.24 0 17.066667-3.413333 27.306666-3.413333-3.413333 116.053333-13.653333 375.466667-30.72 471.04-3.413333 27.306667 10.24 54.613333 34.133334 64.853333l6.826666 3.413334c54.613333 27.306667 170.666667 81.92 334.506667 81.92s279.893333-58.026667 334.506667-81.92l6.826666-3.413334c23.893333-10.24 37.546667-37.546667 34.133334-64.853333-17.066667-95.573333-27.306667-354.986667-30.72-471.04 10.24 0 20.48 3.413333 27.306666 3.413333 30.72 3.413333 47.786667 6.826667 58.026667 6.826667h20.48c13.653333 0 30.72-3.413333 44.373333-17.066667s20.48-37.546667 20.48-68.266666c-3.413333-78.506667-102.4-174.08-235.52-218.453334z m-17.066666 354.986667c-81.92 34.133333-191.146667 51.2-262.826667 51.2-64.853333 0-174.08-13.653333-262.826667-51.2-10.24-3.413333-13.653333-13.653333-10.24-23.893333 3.413333-10.24 13.653333-13.653333 23.893334-10.24C341.333333 464.213333 443.733333 477.866667 512 477.866667s170.666667-17.066667 249.173333-51.2c10.24-3.413333 17.066667 0 23.893334 10.24 3.413333 10.24 0 20.48-10.24 23.893333z"
        fill="#394150" p-id="8283"></path>
    <path
        d="M375.466667 290.133333h112.64c6.826667 0 10.24-3.413333 13.653333-6.826666 3.413333-3.413333 3.413333-10.24 3.413333-13.653334-6.826667-27.306667-64.853333-269.653333-187.733333-269.653333-17.066667 0-27.306667 6.826667-34.133333 17.066667-30.72 51.2 51.2 215.04 78.506666 262.826666 0 6.826667 6.826667 10.24 13.653334 10.24zM515.413333 283.306667c3.413333 3.413333 6.826667 6.826667 13.653334 6.826666H648.533333c6.826667 0 13.653333-3.413333 13.653334-10.24 27.306667-47.786667 105.813333-215.04 78.506666-262.826666-6.826667-10.24-17.066667-17.066667-30.72-17.066667-122.88 0-187.733333 242.346667-197.973333 269.653333 0 3.413333 0 10.24 3.413333 13.653334zM477.866667 98.986667c3.413333 6.826667 10.24 10.24 13.653333 10.24h30.72c6.826667 0 13.653333-3.413333 13.653333-10.24l10.24-3.413334v-17.066666c-3.413333-6.826667-10.24-10.24-13.653333-10.24h-40.96c-6.826667 0-10.24 3.413333-13.653333 10.24s-3.413333 13.653333 0 20.48z"
        fill="#394150" p-id="8284"></path>
</svg>