<svg t="1722263514740" class="icon" viewBox="0 0 1152 1024" version="1.1" xmlns="http://www.w3.org/2000/svg"
    p-id="13541">
    <path
        d="M576 128C79.04 128 0 364.2 0 547 0 759 157.6 896 352 896c54.66 0 102.42-13.032 132.22-73.58l39.86-81C536.6 717.2 556.2 704.8 576 704.2c19.8 0.742 39.4 13.002 51.94 37.26l39.86 81C697.6 883 745.4 896 800 896c194.4 0 352-137.02 352-349C1152 364.2 1073 128 576 128zM320 640c-70.7 0-128-57.3-128-128s57.3-128 128-128 128 57.3 128 128-57.4 128-128 128z m512 0c-70.7 0-128-57.3-128-128s57.3-128 128-128 128 57.3 128 128-57.4 128-128 128z"
        fill="currentColor" p-id="13542"></path>
</svg>