<svg viewBox="0 0 1024 1024"  xmlns="http://www.w3.org/2000/svg">
<circle cx="512" cy="512" r="510" fill="#394150"/>
<ellipse cx="512" cy="512" rx="450" ry="450" fill="#394150"/>
    <path fill-rule="evenodd" clip-rule="evenodd"
        d="M542.762 796.25C532.334 797.406 521.736 798 511 798C353.599 798 226 670.401 226 513C226 355.599 353.599 228 511 228C668.401 228 796 355.599 796 513C796 591.227 764.483 662.093 713.455 713.592L796.056 796.25H542.762ZM654.506 654.603C690.658 618.169 713 567.95 713 512.5C713 512.417 713 512.333 713 512.25C713 512.166 713 512.083 713 512C713 402.725 625.799 313.818 517.188 311.066C515.464 311.022 513.735 311 512 311C510.265 311 508.536 311.022 506.812 311.066C398.201 313.818 311 402.725 311 512C311 512.083 311 512.166 311 512.25C311 512.333 311 512.417 311 512.5C311 623.785 400.991 714 512 714V713.75H712.918L653.834 654.422C653.916 654.34 653.998 654.259 654.08 654.177L654.506 654.603Z"
        fill="#fff" />
    <circle cx="425" cy="469" r="39" fill="#fff" />
    <circle cx="598" cy="469" r="39" fill="#fff" />
</svg>